name ./resultDataOpenSim/trcMotMarkerGrf/sub09/grf-13-08.mot
datacolumns 19
datarows 20
range 1.43600000 1.51200000
endheader

                time	     ground_force_vx	     ground_force_vy	     ground_force_vz	     ground_force_px	     ground_force_py	     ground_force_pz	   l_ground_force_vx	   l_ground_force_vy	   l_ground_force_vz	   l_ground_force_px	   l_ground_force_py	   l_ground_force_pz	     ground_torque_x	     ground_torque_y	     ground_torque_z	   l_ground_torque_x	   l_ground_torque_y	   l_ground_torque_z	
          1.43600000	        -30.92236709	        409.66200810	        -28.75446521	          1.03719401	          0.00000000	          0.09651853	          0.00000000	          0.00000000	          0.00000000	          0.00000000	          0.00000000	          0.00000000	          0.00000000	          3.90264286	          0.00000000	          0.00000000	          0.00000000	          0.00000000	
          1.44000000	        -30.80510213	        407.25421074	        -26.48743353	          1.03992516	          0.00000000	          0.09635035	          0.00000000	          0.00000000	          0.00000000	          0.00000000	          0.00000000	          0.00000000	          0.00000000	          3.95042128	          0.00000000	          0.00000000	          0.00000000	          0.00000000	
          1.44400000	        -30.38313619	        405.55917058	        -23.45369303	          1.04244284	          0.00000000	          0.09612704	          0.00000000	          0.00000000	          0.00000000	          0.00000000	          0.00000000	          0.00000000	          0.00000000	          4.05392319	          0.00000000	          0.00000000	          0.00000000	          0.00000000	
          1.44800000	        -29.70680136	        404.51447406	        -20.13591966	          1.04475751	          0.00000000	          0.09587336	          0.00000000	          0.00000000	          0.00000000	          0.00000000	          0.00000000	          0.00000000	          0.00000000	          4.18230684	          0.00000000	          0.00000000	          0.00000000	          0.00000000	
          1.45200000	        -28.90484593	        404.07191253	        -17.07113158	          1.04689256	          0.00000000	          0.09561911	          0.00000000	          0.00000000	          0.00000000	          0.00000000	          0.00000000	          0.00000000	          0.00000000	          4.29981190	          0.00000000	          0.00000000	          0.00000000	          0.00000000	
          1.45600000	        -28.14008525	        404.20051667	        -14.74189998	          1.04887681	          0.00000000	          0.09538634	          0.00000000	          0.00000000	          0.00000000	          0.00000000	          0.00000000	          0.00000000	          0.00000000	          4.37209012	          0.00000000	          0.00000000	          0.00000000	          0.00000000	
          1.46000000	        -27.54963916	        404.86717390	        -13.48452803	          1.05072650	          0.00000000	          0.09518275	          0.00000000	          0.00000000	          0.00000000	          0.00000000	          0.00000000	          0.00000000	          0.00000000	          4.37243493	          0.00000000	          0.00000000	          0.00000000	          0.00000000	
          1.46400000	        -27.19803974	        406.01453303	        -13.44135225	          1.05244791	          0.00000000	          0.09501503	          0.00000000	          0.00000000	          0.00000000	          0.00000000	          0.00000000	          0.00000000	          0.00000000	          4.28664576	          0.00000000	          0.00000000	          0.00000000	          0.00000000	
          1.46800000	        -27.06390982	        407.56351497	        -14.54430639	          1.05404385	          0.00000000	          0.09489078	          0.00000000	          0.00000000	          0.00000000	          0.00000000	          0.00000000	          0.00000000	          0.00000000	          4.11546967	          0.00000000	          0.00000000	          0.00000000	          0.00000000	
          1.47200000	        -27.05405140	        409.44515007	        -16.53161955	          1.05551943	          0.00000000	          0.09481377	          0.00000000	          0.00000000	          0.00000000	          0.00000000	          0.00000000	          0.00000000	          0.00000000	          3.87414640	          0.00000000	          0.00000000	          0.00000000	          0.00000000	
          1.47600000	        -27.03048971	        411.63411057	        -19.00625166	          1.05687586	          0.00000000	          0.09477832	          0.00000000	          0.00000000	          0.00000000	          0.00000000	          0.00000000	          0.00000000	          0.00000000	          3.58940743	          0.00000000	          0.00000000	          0.00000000	          0.00000000	
          1.48000000	        -26.84951454	        414.14730443	        -21.51760851	          1.05809159	          0.00000000	          0.09476420	          0.00000000	          0.00000000	          0.00000000	          0.00000000	          0.00000000	          0.00000000	          0.00000000	          3.29492704	          0.00000000	          0.00000000	          0.00000000	          0.00000000	
          1.48400000	        -26.40916447	        417.01329813	        -23.63695223	          1.05914766	          0.00000000	          0.09475180	          0.00000000	          0.00000000	          0.00000000	          0.00000000	          0.00000000	          0.00000000	          0.00000000	          3.02631697	          0.00000000	          0.00000000	          0.00000000	          0.00000000	
          1.48800000	        -25.68216323	        420.25113341	        -25.01342542	          1.06005272	          0.00000000	          0.09472021	          0.00000000	          0.00000000	          0.00000000	          0.00000000	          0.00000000	          0.00000000	          0.00000000	          2.81637514	          0.00000000	          0.00000000	          0.00000000	          0.00000000	
          1.49200000	        -24.71491906	        423.86392604	        -25.41598648	          1.06083609	          0.00000000	          0.09464229	          0.00000000	          0.00000000	          0.00000000	          0.00000000	          0.00000000	          0.00000000	          0.00000000	          2.69086615	          0.00000000	          0.00000000	          0.00000000	          0.00000000	
          1.49600000	        -23.59740713	        427.83449160	        -24.76644764	          1.06152326	          0.00000000	          0.09449831	          0.00000000	          0.00000000	          0.00000000	          0.00000000	          0.00000000	          0.00000000	          0.00000000	          2.66498034	          0.00000000	          0.00000000	          0.00000000	          0.00000000	
          1.50000000	        -22.42530889	        432.12474043	        -23.15786024	          1.06212845	          0.00000000	          0.09428410	          0.00000000	          0.00000000	          0.00000000	          0.00000000	          0.00000000	          0.00000000	          0.00000000	          2.74079826	          0.00000000	          0.00000000	          0.00000000	          0.00000000	
          1.50400000	        -21.27059072	        436.67540673	        -20.84353645	          1.06265540	          0.00000000	          0.09400159	          0.00000000	          0.00000000	          0.00000000	          0.00000000	          0.00000000	          0.00000000	          0.00000000	          2.90636691	          0.00000000	          0.00000000	          0.00000000	          0.00000000	
          1.50800000	        -20.16091987	        441.41660733	        -18.18413075	          1.06312644	          0.00000000	          0.09367582	          0.00000000	          0.00000000	          0.00000000	          0.00000000	          0.00000000	          0.00000000	          0.00000000	          3.13710604	          0.00000000	          0.00000000	          0.00000000	          0.00000000	
          1.51200000	        -19.06841509	        446.31014474	        -15.56841294	          1.06355880	          0.00000000	          0.09334020	          0.00000000	          0.00000000	          0.00000000	          0.00000000	          0.00000000	          0.00000000	          0.00000000	          3.39989693	          0.00000000	          0.00000000	          0.00000000	          0.00000000	
